<?xml version="1.0"?>
<svg xmlns="http://www.w3.org/2000/svg" xmlns:xlink="http://www.w3.org/1999/xlink" version="1.1" viewBox="0 0 252 252" width="96px" height="96px"><g fill="none" fill-rule="nonzero" stroke="none" stroke-width="1" stroke-linecap="butt" stroke-linejoin="miter" stroke-miterlimit="10" stroke-dasharray="" stroke-dashoffset="0" font-family="none" font-weight="none" font-size="none" text-anchor="none" style="mix-blend-mode: normal"><path d="M0,252v-252h252v252z" fill="none"/><path d="M126,252c-69.58788,0 -126,-56.41212 -126,-126v0c0,-69.58788 56.41212,-126 126,-126v0c69.58788,0 126,56.41212 126,126v0c0,69.58788 -56.41212,126 -126,126z" fill="#de7907"/><g id="original-icon"><g id="surface1"><path d="M43.10526,134.28947h165.78947v-29.01316c0,-9.16375 -7.41519,-16.57895 -16.57895,-16.57895h-132.63158c-9.16375,0 -16.57895,7.4152 -16.57895,16.57895z" fill="#616161"/><path d="M63.82895,76.26316h124.34211v12.43421h-124.34211z" fill="#424242"/><path d="M59.68421,179.88158h132.63158c9.16376,0 16.57895,-7.41519 16.57895,-16.57895v-33.15789h-165.78947v33.15789c0,9.16376 7.4152,16.57895 16.57895,16.57895" fill="#424242"/><path d="M188.17105,105.27632c0,2.28284 1.86189,4.14474 4.14474,4.14474c2.28284,0 4.14474,-1.86189 4.14474,-4.14474c0,-2.28284 -1.86189,-4.14474 -4.14474,-4.14474c-2.28284,0 -4.14474,1.86189 -4.14474,4.14474" fill="#00e676"/><path d="M181.95395,159.15789h-111.90789c-3.43236,0 -6.21711,-2.78475 -6.21711,-6.21711c0,-3.43236 2.78475,-6.21711 6.21711,-6.21711h111.90789c3.43236,0 6.21711,2.78475 6.21711,6.21711c0,3.43236 -2.78475,6.21711 -6.21711,6.21711" fill="#242424"/><path d="M72.11842,47.25h107.76316v41.44737h-107.76316z" fill="#90caf9"/><path d="M72.11842,159.15789h107.76316v45.59211h-107.76316z" fill="#90caf9"/><path d="M72.11842,150.86842h107.76316v8.28947h-107.76316z" fill="#42a5f5"/><path d="M92.84211,167.44737h70.46053v8.28947h-70.46053z" fill="#1976d2"/><path d="M92.84211,184.02632h53.88158v8.28947h-53.88158z" fill="#1976d2"/></g></g><path d="M126,252c-69.58788,0 -126,-56.41212 -126,-126v0c0,-69.58788 56.41212,-126 126,-126v0c69.58788,0 126,56.41212 126,126v0c0,69.58788 -56.41212,126 -126,126z" fill="none"/><path d="M126,246.96c-66.80436,0 -120.96,-54.15564 -120.96,-120.96v0c0,-66.80436 54.15564,-120.96 120.96,-120.96h0c66.80436,0 120.96,54.15564 120.96,120.96v0c0,66.80436 -54.15564,120.96 -120.96,120.96z" fill="none"/></g></svg>
